<svg width="108" height="81" viewBox="0 0 108 81" fill="none" xmlns="http://www.w3.org/2000/svg">
<g clip-path="url(#clip0_171_81)">
<rect width="108" height="80.9999" fill="white"/>
<path d="M39.286 11.0602C46.3295 3.83695 55.8706 0.225342 67.9093 0.225342C79.948 0.225342 89.4891 3.83695 96.5327 11.0602C103.576 18.2834 107.098 28.094 107.098 40.492C107.098 52.8901 103.576 62.7007 96.5327 69.9239C89.4891 77.1112 79.948 80.7048 67.9093 80.7048C55.8347 80.7048 46.2756 77.1112 39.2321 69.9239C32.2245 62.7007 28.7207 52.8901 28.7207 40.492C28.7207 28.094 32.2425 18.2834 39.286 11.0602ZM79.4449 24.4285C76.5341 20.4395 72.6889 18.4451 67.9093 18.4451C63.1298 18.4451 59.2846 20.4395 56.3738 24.4285C53.4629 28.4174 52.0075 33.7719 52.0075 40.492C52.0075 47.1762 53.4449 52.5127 56.3199 56.5017C59.2307 60.4906 63.0939 62.4851 67.9093 62.4851C72.7248 62.4851 76.57 60.4906 79.4449 56.5017C82.3558 52.5127 83.8112 47.1762 83.8112 40.492C83.8112 33.7719 82.3558 28.4174 79.4449 24.4285Z" fill="#931F87"/>
<path d="M45.0939 37.0625L67.4841 0.228587C68.6742 0.212895 69.3631 0.229925 70.6193 0.290408L46.8555 40.2916L70.2982 80.6597C68.4934 80.7113 67.8362 80.8634 66.858 80.6942L45.1728 43.3925L33.8095 62.6073C34.2658 63.4663 34.57 63.9405 35.1213 64.7851L25.5979 80.6369H4.04347L26.3516 40.2916L0.50293 0.0273438L25.6954 0.0273437L35.2618 16.0312C34.6047 17.0432 34.2942 17.5419 33.8986 18.2734L45.0939 37.0625Z" fill="#01D4A1"/>
<path d="M45.0941 37.0624L67.4843 0.228527C68.6744 0.212834 69.3633 0.229865 70.6194 0.290347L46.8557 40.2915L70.2984 80.6597C68.4935 80.7113 67.8364 80.8634 66.8582 80.6941L45.173 43.3924L33.8097 62.6073C29.2871 54.2198 28.5615 45.7108 28.7594 40.2915C28.6934 31.991 30.0786 25.4608 33.8988 18.2734L45.0941 37.0624Z" fill="white"/>
<path fill-rule="evenodd" clip-rule="evenodd" d="M35.6255 20.9747L33.8898 18.2737C30.4437 24.4139 28.7207 31.82 28.7207 40.492C28.7207 49.1201 30.4176 56.495 33.8114 62.6169L35.5616 59.9261C32.8919 54.541 31.5207 48.0926 31.5207 40.492C31.5207 32.8524 32.9134 26.3768 35.6255 20.9747Z" fill="white"/>
</g>
<defs>
<clipPath id="clip0_171_81">
<rect width="108" height="80.9999" fill="white"/>
</clipPath>
</defs>
</svg>
