<svg width="17" height="16" viewBox="0 0 17 16" fill="none" xmlns="http://www.w3.org/2000/svg">
<path id="Arrow 1" d="M1.37085 7C0.818565 7 0.37085 7.44772 0.37085 8C0.37085 8.55228 0.818565 9 1.37085 9V7ZM16.7071 8.70711C17.0976 8.31658 17.0976 7.68342 16.7071 7.29289L10.3431 0.928932C9.9526 0.538408 9.31944 0.538408 8.92891 0.928932C8.53839 1.31946 8.53839 1.95262 8.92891 2.34315L14.5858 8L8.92891 13.6569C8.53839 14.0474 8.53839 14.6805 8.92891 15.0711C9.31944 15.4616 9.9526 15.4616 10.3431 15.0711L16.7071 8.70711ZM1.37085 9H16V7H1.37085V9Z" fill="#01702B"/>
</svg>
