<svg width="135" height="130" viewBox="0 0 135 130" fill="none" xmlns="http://www.w3.org/2000/svg">
<g clip-path="url(#clip0_307_891)">
<rect width="108" height="80.9999" transform="translate(13.5)" fill="white"/>
<path d="M52.786 11.0602C59.8295 3.83695 69.3706 0.225342 81.4093 0.225342C93.448 0.225342 102.989 3.83695 110.033 11.0602C117.076 18.2834 120.598 28.094 120.598 40.492C120.598 52.8901 117.076 62.7007 110.033 69.9239C102.989 77.1112 93.448 80.7048 81.4093 80.7048C69.3347 80.7048 59.7756 77.1112 52.7321 69.9239C45.7245 62.7007 42.2207 52.8901 42.2207 40.492C42.2207 28.094 45.7425 18.2834 52.786 11.0602ZM92.9449 24.4285C90.0341 20.4395 86.1889 18.4451 81.4093 18.4451C76.6298 18.4451 72.7846 20.4395 69.8738 24.4285C66.9629 28.4174 65.5075 33.7719 65.5075 40.492C65.5075 47.1762 66.9449 52.5127 69.8199 56.5017C72.7307 60.4906 76.5939 62.4851 81.4093 62.4851C86.2248 62.4851 90.07 60.4906 92.9449 56.5017C95.8558 52.5127 97.3112 47.1762 97.3112 40.492C97.3112 33.7719 95.8558 28.4174 92.9449 24.4285Z" fill="#931F87"/>
<path d="M58.5939 37.0625L80.9841 0.228587C82.1742 0.212895 82.8631 0.229925 84.1193 0.290408L60.3555 40.2916L83.7982 80.6597C81.9934 80.7113 81.3362 80.8634 80.358 80.6942L58.6728 43.3925L47.3095 62.6073C47.7658 63.4663 48.07 63.9405 48.6213 64.7851L39.0979 80.6369H17.5435L39.8516 40.2916L14.0029 0.0273438L39.1954 0.0273437L48.7618 16.0312C48.1047 17.0432 47.7942 17.5419 47.3986 18.2734L58.5939 37.0625Z" fill="#01D4A1"/>
<path d="M58.5941 37.0624L80.9843 0.228527C82.1744 0.212834 82.8633 0.229865 84.1194 0.290347L60.3557 40.2915L83.7984 80.6597C81.9935 80.7113 81.3364 80.8634 80.3582 80.6941L58.673 43.3924L47.3097 62.6073C42.7871 54.2198 42.0615 45.7108 42.2594 40.2915C42.1934 31.991 43.5786 25.4608 47.3988 18.2734L58.5941 37.0624Z" fill="white"/>
<path fill-rule="evenodd" clip-rule="evenodd" d="M49.1255 20.9747L47.3898 18.2737C43.9437 24.4139 42.2207 31.82 42.2207 40.492C42.2207 49.1201 43.9176 56.495 47.3114 62.6169L49.0616 59.9261C46.3919 54.541 45.0207 48.0926 45.0207 40.492C45.0207 32.8524 46.4134 26.3768 49.1255 20.9747Z" fill="white"/>
</g>
<path d="M7.9707 123H7.28711V103.914H0.177734V103.271H15.0801V103.914H7.9707V123ZM23.8574 121.223C22.709 122.544 21.196 123.205 19.3184 123.205C17.4408 123.205 15.9277 122.544 14.7793 121.223C13.6309 119.901 13.0566 118.124 13.0566 115.891C13.0566 113.657 13.6309 111.88 14.7793 110.558C15.9277 109.237 17.4408 108.576 19.3184 108.576C21.196 108.576 22.709 109.237 23.8574 110.558C25.015 111.88 25.5938 113.657 25.5938 115.891C25.5938 118.124 25.015 119.901 23.8574 121.223ZM19.3184 122.59C20.9954 122.59 22.349 121.984 23.3789 120.771C24.4089 119.559 24.9238 117.932 24.9238 115.891C24.9238 113.84 24.4089 112.213 23.3789 111.01C22.3581 109.797 21.0046 109.191 19.3184 109.191C17.6322 109.191 16.2786 109.797 15.2578 111.01C14.2461 112.213 13.7402 113.84 13.7402 115.891C13.7402 117.941 14.2461 119.573 15.2578 120.785C16.2786 121.988 17.6322 122.59 19.3184 122.59ZM33.5098 109.191C31.9238 109.191 30.6296 109.752 29.627 110.873C28.6335 111.994 28.1003 113.475 28.0273 115.316H38.8828C38.8828 113.493 38.3861 112.017 37.3926 110.887C36.4082 109.756 35.1139 109.191 33.5098 109.191ZM38.6914 119.049H39.3887C39.1426 120.279 38.5046 121.282 37.4746 122.057C36.4538 122.822 35.1686 123.205 33.6191 123.205C31.696 123.205 30.1647 122.558 29.0254 121.264C27.8952 119.969 27.3301 118.178 27.3301 115.891C27.3301 113.685 27.8952 111.917 29.0254 110.586C30.1556 109.246 31.6504 108.576 33.5098 108.576C35.3236 108.576 36.7865 109.205 37.8984 110.463C39.0104 111.721 39.5664 113.37 39.5664 115.412V115.932H28.0137V115.959C28.0137 118.037 28.5195 119.664 29.5312 120.84C30.5521 122.006 31.9193 122.59 33.6328 122.59C35 122.59 36.1302 122.262 37.0234 121.605C37.9167 120.949 38.4727 120.097 38.6914 119.049Z" fill="black"/>
<path d="M55.7754 123H52.7129V105.91H46.6699V103.271H61.8047V105.91H55.7754V123ZM65.4004 120.908C66.4395 120.908 67.3099 120.594 68.0117 119.965C68.7227 119.327 69.0781 118.543 69.0781 117.613V116.478L65.5371 116.697C64.653 116.761 63.9694 116.98 63.4863 117.353C63.0124 117.718 62.7754 118.21 62.7754 118.83C62.7754 119.459 63.0124 119.965 63.4863 120.348C63.9694 120.721 64.6074 120.908 65.4004 120.908ZM64.5801 123.246C63.1673 123.246 62.0143 122.845 61.1211 122.043C60.237 121.241 59.7949 120.197 59.7949 118.912C59.7949 117.654 60.2598 116.656 61.1895 115.918C62.1191 115.17 63.4362 114.751 65.1406 114.66L69.0781 114.428V113.32C69.0781 112.518 68.8229 111.894 68.3125 111.447C67.8021 110.991 67.0957 110.764 66.1934 110.764C65.3548 110.764 64.6712 110.95 64.1426 111.324C63.623 111.698 63.2949 112.213 63.1582 112.869H60.3691C60.4512 111.538 61.0254 110.454 62.0918 109.615C63.1582 108.777 64.5618 108.357 66.3027 108.357C68.0436 108.357 69.429 108.786 70.459 109.642C71.498 110.499 72.0176 111.648 72.0176 113.088V123H69.1875V120.635H69.1191C68.709 121.428 68.0846 122.061 67.2461 122.535C66.4167 123.009 65.528 123.246 64.5801 123.246ZM87.2344 113.566H84.418C84.263 112.755 83.8893 112.094 83.2969 111.584C82.7135 111.073 81.9616 110.818 81.041 110.818C79.8926 110.818 78.972 111.269 78.2793 112.172C77.5957 113.065 77.2539 114.277 77.2539 115.808C77.2539 117.367 77.5957 118.588 78.2793 119.473C78.972 120.357 79.9017 120.799 81.0684 120.799C81.9707 120.799 82.709 120.566 83.2832 120.101C83.8665 119.627 84.2448 118.971 84.418 118.133H87.2617C87.1068 119.673 86.4596 120.917 85.3203 121.865C84.1901 122.804 82.7637 123.273 81.041 123.273C78.972 123.273 77.3223 122.608 76.0918 121.277C74.8613 119.937 74.2461 118.114 74.2461 115.808C74.2461 113.53 74.8613 111.721 76.0918 110.381C77.3223 109.032 78.9629 108.357 81.0137 108.357C82.8001 108.357 84.2493 108.859 85.3613 109.861C86.4733 110.855 87.0977 112.09 87.2344 113.566Z" fill="black"/>
<path d="M104.607 123H98.8105V107.879H93.6152V103.271H109.803V107.879H104.607V123ZM110.924 123V107.906H116.529V123H110.924ZM115.709 106.32C115.18 106.821 114.52 107.072 113.727 107.072C112.934 107.072 112.268 106.821 111.73 106.32C111.202 105.81 110.938 105.176 110.938 104.42C110.938 103.663 111.202 103.034 111.73 102.533C112.268 102.023 112.934 101.767 113.727 101.767C114.52 101.767 115.18 102.023 115.709 102.533C116.247 103.034 116.516 103.663 116.516 104.42C116.516 105.176 116.247 105.81 115.709 106.32ZM133.455 114.154H128.355C128.301 113.398 128.077 112.801 127.686 112.363C127.294 111.917 126.797 111.693 126.195 111.693C125.457 111.693 124.892 112.012 124.5 112.65C124.117 113.288 123.926 114.218 123.926 115.439C123.926 116.67 124.117 117.609 124.5 118.256C124.883 118.894 125.448 119.213 126.195 119.213C126.824 119.213 127.33 119.008 127.713 118.598C128.096 118.178 128.31 117.595 128.355 116.848H133.455C133.428 118.889 132.762 120.489 131.459 121.646C130.156 122.804 128.378 123.383 126.127 123.383C123.675 123.383 121.747 122.681 120.344 121.277C118.949 119.864 118.252 117.918 118.252 115.439C118.252 112.978 118.949 111.046 120.344 109.642C121.747 108.23 123.666 107.523 126.1 107.523C128.305 107.523 130.074 108.12 131.404 109.314C132.735 110.508 133.419 112.122 133.455 114.154Z" fill="black"/>
<defs>
<clipPath id="clip0_307_891">
<rect width="108" height="80.9999" fill="white" transform="translate(13.5)"/>
</clipPath>
</defs>
</svg>
