<svg width="135" height="23" viewBox="0 0 135 23" fill="none" xmlns="http://www.w3.org/2000/svg">
<path d="M7.9707 21.9999H7.28711V2.91394H0.177734V2.27136H15.0801V2.91394H7.9707V21.9999ZM23.8574 20.2225C22.709 21.5441 21.196 22.205 19.3184 22.205C17.4408 22.205 15.9277 21.5441 14.7793 20.2225C13.6309 18.9009 13.0566 17.1236 13.0566 14.8905C13.0566 12.6574 13.6309 10.8801 14.7793 9.55847C15.9277 8.23686 17.4408 7.57605 19.3184 7.57605C21.196 7.57605 22.709 8.23686 23.8574 9.55847C25.015 10.8801 25.5938 12.6574 25.5938 14.8905C25.5938 17.1236 25.015 18.9009 23.8574 20.2225ZM19.3184 21.5897C20.9954 21.5897 22.349 20.9836 23.3789 19.7714C24.4089 18.5591 24.9238 16.9322 24.9238 14.8905C24.9238 12.8397 24.4089 11.2128 23.3789 10.0096C22.3581 8.7974 21.0046 8.19128 19.3184 8.19128C17.6322 8.19128 16.2786 8.7974 15.2578 10.0096C14.2461 11.2128 13.7402 12.8397 13.7402 14.8905C13.7402 16.9413 14.2461 18.5728 15.2578 19.785C16.2786 20.9882 17.6322 21.5897 19.3184 21.5897ZM33.5098 8.19128C31.9238 8.19128 30.6296 8.75183 29.627 9.87292C28.6335 10.994 28.1003 12.4751 28.0273 14.3163H38.8828C38.8828 12.4934 38.3861 11.0168 37.3926 9.8866C36.4082 8.75639 35.1139 8.19128 33.5098 8.19128ZM38.6914 18.0487H39.3887C39.1426 19.2792 38.5046 20.2818 37.4746 21.0565C36.4538 21.8221 35.1686 22.205 33.6191 22.205C31.696 22.205 30.1647 21.5578 29.0254 20.2635C27.8952 18.9693 27.3301 17.1783 27.3301 14.8905C27.3301 12.6848 27.8952 10.9165 29.0254 9.58582C30.1556 8.24597 31.6504 7.57605 33.5098 7.57605C35.3236 7.57605 36.7865 8.20496 37.8984 9.46277C39.0104 10.7206 39.5664 12.3703 39.5664 14.412V14.9315H28.0137V14.9589C28.0137 17.037 28.5195 18.6639 29.5312 19.8397C30.5521 21.0064 31.9193 21.5897 33.6328 21.5897C35 21.5897 36.1302 21.2616 37.0234 20.6053C37.9167 19.9491 38.4727 19.0969 38.6914 18.0487ZM55.9043 21.9999H52.8418V4.91003H46.7988V2.27136H61.9336V4.91003H55.9043V21.9999ZM65.5293 19.9081C66.5684 19.9081 67.4388 19.5936 68.1406 18.9647C68.8516 18.3267 69.207 17.5428 69.207 16.6132V15.4784L65.666 15.6971C64.7819 15.7609 64.0983 15.9797 63.6152 16.3534C63.1413 16.718 62.9043 17.2102 62.9043 17.83C62.9043 18.4589 63.1413 18.9647 63.6152 19.3475C64.0983 19.7212 64.7363 19.9081 65.5293 19.9081ZM64.709 22.246C63.2962 22.246 62.1432 21.8449 61.25 21.0428C60.3659 20.2408 59.9238 19.1971 59.9238 17.912C59.9238 16.6542 60.3887 15.6561 61.3184 14.9178C62.248 14.1705 63.5651 13.7512 65.2695 13.66L69.207 13.4276V12.3202C69.207 11.5181 68.9518 10.8938 68.4414 10.4471C67.931 9.99141 67.2246 9.76355 66.3223 9.76355C65.4837 9.76355 64.8001 9.9504 64.2715 10.3241C63.752 10.6978 63.4238 11.2128 63.2871 11.869H60.498C60.5801 10.5383 61.1543 9.45365 62.2207 8.61511C63.2871 7.77657 64.6908 7.3573 66.4316 7.3573C68.1725 7.3573 69.5579 7.78569 70.5879 8.64246C71.627 9.49923 72.1465 10.6477 72.1465 12.0878V21.9999H69.3164V19.6346H69.248C68.8379 20.4276 68.2135 21.0611 67.375 21.535C66.5456 22.009 65.6569 22.246 64.709 22.246ZM87.3633 12.5663H84.5469C84.3919 11.7551 84.0182 11.0943 83.4258 10.5839C82.8424 10.0734 82.0905 9.81824 81.1699 9.81824C80.0215 9.81824 79.1009 10.2694 78.4082 11.1718C77.7246 12.065 77.3828 13.2772 77.3828 14.8085C77.3828 16.3671 77.7246 17.5884 78.4082 18.4725C79.1009 19.3566 80.0306 19.7987 81.1973 19.7987C82.0996 19.7987 82.8379 19.5663 83.4121 19.1014C83.9954 18.6275 84.3737 17.9712 84.5469 17.1327H87.3906C87.2357 18.6731 86.5885 19.9172 85.4492 20.8651C84.319 21.8039 82.8926 22.2733 81.1699 22.2733C79.1009 22.2733 77.4512 21.608 76.2207 20.2772C74.9902 18.9374 74.375 17.1145 74.375 14.8085C74.375 12.5298 74.9902 10.7206 76.2207 9.38074C77.4512 8.03178 79.0918 7.3573 81.1426 7.3573C82.929 7.3573 84.3783 7.8586 85.4902 8.86121C86.6022 9.8547 87.2266 11.0897 87.3633 12.5663ZM105.314 21.9999H99.5176V6.87878H94.3223V2.27136H110.51V6.87878H105.314V21.9999ZM111.631 21.9999V6.90613H117.236V21.9999H111.631ZM116.416 5.32019C115.887 5.82149 115.227 6.07214 114.434 6.07214C113.641 6.07214 112.975 5.82149 112.438 5.32019C111.909 4.80977 111.645 4.17631 111.645 3.4198C111.645 2.66329 111.909 2.03438 112.438 1.53308C112.975 1.02266 113.641 0.767456 114.434 0.767456C115.227 0.767456 115.887 1.02266 116.416 1.53308C116.954 2.03438 117.223 2.66329 117.223 3.4198C117.223 4.17631 116.954 4.80977 116.416 5.32019ZM134.162 13.1542H129.062C129.008 12.3977 128.785 11.8007 128.393 11.3632C128.001 10.9165 127.504 10.6932 126.902 10.6932C126.164 10.6932 125.599 11.0122 125.207 11.6503C124.824 12.2883 124.633 13.218 124.633 14.4393C124.633 15.6698 124.824 16.6086 125.207 17.2557C125.59 17.8938 126.155 18.2128 126.902 18.2128C127.531 18.2128 128.037 18.0077 128.42 17.5975C128.803 17.1783 129.017 16.5949 129.062 15.8475H134.162C134.135 17.8892 133.469 19.4888 132.166 20.6464C130.863 21.8039 129.085 22.3827 126.834 22.3827C124.382 22.3827 122.454 21.6809 121.051 20.2772C119.656 18.8645 118.959 16.9185 118.959 14.4393C118.959 11.9784 119.656 10.0461 121.051 8.64246C122.454 7.2297 124.373 6.52332 126.807 6.52332C129.012 6.52332 130.781 7.12032 132.111 8.31433C133.442 9.50834 134.126 11.1216 134.162 13.1542Z" fill="black"/>
</svg>
